<svg xmlns="http://www.w3.org/2000/svg" viewBox="0 0 1600 1000">
  <defs>
    <linearGradient id="bg" x1="0" y1="0" x2="1" y2="1">
      <stop offset="0%" stop-color="#dff3ff"/>
      <stop offset="100%" stop-color="#eef4ff"/>
    </linearGradient>
    <linearGradient id="card" x1="0" y1="0" x2="1" y2="1">
      <stop offset="0%" stop-color="#2aa9e0"/>
      <stop offset="100%" stop-color="#7a6ff2"/>
    </linearGradient>
  </defs>
  <rect width="1600" height="1000" fill="url(#bg)"/>
  <circle cx="130" cy="120" r="120" fill="#8fdcff" opacity="0.5"/>
  <circle cx="1460" cy="160" r="140" fill="#c7bcff" opacity="0.5"/>
  <rect x="120" y="160" width="1360" height="680" rx="40" fill="#ffffff" stroke="#d5e4f2"/>
  <rect x="180" y="240" width="520" height="440" rx="30" fill="#f5fbff" stroke="#dcecf7"/>
  <rect x="760" y="240" width="560" height="120" rx="24" fill="url(#card)" opacity="0.95"/>
  <rect x="760" y="400" width="560" height="60" rx="18" fill="#eaf4fb"/>
  <rect x="760" y="490" width="480" height="60" rx="18" fill="#eef4ff"/>
  <rect x="760" y="580" width="520" height="60" rx="18" fill="#eef4ff"/>
  <rect x="760" y="670" width="300" height="56" rx="18" fill="#20365f"/>
  <g transform="translate(280 310)">
    <circle cx="140" cy="140" r="140" fill="#d7edfb"/>
    <ellipse cx="140" cy="148" rx="88" ry="110" fill="#9ad9ff"/>
    <circle cx="140" cy="110" r="54" fill="#7a6ff2" opacity="0.18"/>
    <rect x="54" y="252" width="172" height="110" rx="38" fill="#2aa9e0"/>
  </g>
  <g transform="translate(1010 301)">
    <circle cx="0" cy="0" r="28" fill="#ffffff" opacity="0.45"/>
    <circle cx="120" cy="40" r="18" fill="#ffffff" opacity="0.4"/>
    <circle cx="-90" cy="95" r="16" fill="#ffffff" opacity="0.35"/>
  </g>
</svg>